<?xml version="1.0" encoding="UTF-8"?>
<svg id="_Слой_1" data-name="Слой 1" xmlns="http://www.w3.org/2000/svg" width="13" height="17" viewBox="0 0 13 17">
  <defs>
    <style>
      .cls-1 {
        fill: #0795a9;
      }

      .cls-1, .cls-2, .cls-3 {
        stroke-width: 0px;
      }

      .cls-2 {
        fill: #090a09;
      }

      .cls-3 {
        fill: #0a5364;
      }
    </style>
  </defs>
  <path class="cls-1" d="m6.49,1c1.28,1.77,2.49,2.85,4.52,2.96.93.05,1.12-.53.9,1.4-.41,3.55-2.74,8.65-5.38,10.64-.59-.31-1.42-1.25-1.88-1.84-1.58-2.04-2.97-5.3-3.45-8-.06-.31-.35-2.14-.13-2.23.35-.14,2.88.78,5.41-2.93Z"/>
  <path class="cls-2" d="m6.49,1.19c1.57,2.1,2.91,3.06,5.35,2.92-.05,3.97-2.46,9.49-5.31,11.69-.15.02-.8-.62-.96-.77-1.4-1.45-2.66-3.78-3.39-5.8-.54-1.51-1.06-3.47-1.01-5.11,2.38.12,3.79-.86,5.32-2.93Z"/>
  <g>
    <path class="cls-1" d="m6.47,2.44c1.4,1.65,2.59,2.46,4.61,2.53-.47,3.8-2.14,7.37-4.58,9.89-2.07-2.06-3.68-5.29-4.35-8.37-.04-.18-.3-1.49-.22-1.54,1.83,0,3.33-.92,4.55-2.52Z"/>
    <path class="cls-3" d="m6.49,2.66c1.29,1.56,2.55,2.38,4.42,2.48-.52,3.63-2.08,7.07-4.42,9.51-2.36-2.47-3.86-5.87-4.43-9.52,1.83-.07,3.17-.93,4.43-2.46Z"/>
  </g>
</svg>